<?xml version="1.0" standalone="no"?>
<!DOCTYPE svg PUBLIC "-//W3C//DTD SVG 1.1//EN" "http://www.w3.org/Graphics/SVG/1.1/DTD/svg11.dtd" >
<!--
2013-9-30: Created.
-->
<svg>
<metadata>
Created by iconfont
</metadata>
<defs>

<font id="iconfont" horiz-adv-x="1024" >
  <font-face
    font-family="iconfont"
    font-weight="500"
    font-stretch="normal"
    units-per-em="1024"
    ascent="896"
    descent="-128"
  />
    <missing-glyph />
    
    <glyph glyph-name="x" unicode="x" horiz-adv-x="1001"
d="M281 543q-27 -1 -53 -1h-83q-18 0 -36.5 -6t-32.5 -18.5t-23 -32t-9 -45.5v-76h912v41q0 16 -0.5 30t-0.5 18q0 13 -5 29t-17 29.5t-31.5 22.5t-49.5 9h-133v-97h-438v97zM955 310v-52q0 -23 0.5 -52t0.5 -58t-10.5 -47.5t-26 -30t-33 -16t-31.5 -4.5q-14 -1 -29.5 -0.5
t-29.5 0.5h-32l-45 128h-439l-44 -128h-29h-34q-20 0 -45 1q-25 0 -41 9.5t-25.5 23t-13.5 29.5t-4 30v167h911zM163 247q-12 0 -21 -8.5t-9 -21.5t9 -21.5t21 -8.5q13 0 22 8.5t9 21.5t-9 21.5t-22 8.5zM316 123q-8 -26 -14 -48q-5 -19 -10.5 -37t-7.5 -25t-3 -15t1 -14.5
t9.5 -10.5t21.5 -4h37h67h81h80h64h36q23 0 34 12t2 38q-5 13 -9.5 30.5t-9.5 34.5q-5 19 -11 39h-368zM336 498v228q0 11 2.5 23t10 21.5t20.5 15.5t34 6h188q31 0 51.5 -14.5t20.5 -52.5v-227h-327z" />
    

    
    <glyph glyph-name="right" unicode="&#58899;" d="M253.647872-99.81056l48.335872-48.336896 446.498816 446.589952L301.983744 744.982272 253.647872 696.6464l398.239744-398.232576L253.647872-99.81056z"  horiz-adv-x="1024" />

    
    <glyph glyph-name="iconfontyuan" unicode="&#58996;" d="M512.010 507.499c-121.23 0-219.505-98.261-219.505-219.498 0-121.216 98.276-219.499 219.506-219.499 121.22 0 219.487 98.284 219.487 219.499 0.001 121.237-98.264 219.498-219.487 219.498z"  horiz-adv-x="1024" />

    
    <glyph glyph-name="time" unicode="&#58915;" d="M517.136-93.777c-263.145 0-477.226 214.086-477.226 477.23 0 263.145 214.082 477.228 477.226 477.228 263.142 0 477.229-214.083 477.229-477.228 0-263.143-214.085-477.23-477.229-477.23zM517.136 798.59c-228.909 0-415.136-186.23-415.136-415.138s186.227-415.139 415.136-415.139 415.137 186.231 415.137 415.139-186.228 415.138-415.137 415.138zM517.136 352.407c-17.146 0-31.045 13.899-31.045 31.045v260.431c0 17.147 13.899 31.045 31.045 31.045s31.043-13.899 31.043-31.045v-260.43c0.002-17.147-13.898-31.046-31.043-31.046zM756.879 153.006c-6.998 0-14.037 2.353-19.837 7.178l-239.756 199.401c-13.186 10.962-14.982 30.538-4.019 43.718 10.963 13.182 30.537 14.983 43.718 4.020l239.757-199.405c13.185-10.962 14.98-30.538 4.017-43.716-6.14-7.383-14.981-11.196-23.882-11.196z"  horiz-adv-x="1024" />

    
    <glyph glyph-name="anquan" unicode="&#58916;" d="M855.275227 618.743508l-37.554314 0.615007c-0.895393 0-50.620911 1.765203-137.533376 36.548404-89.14225 35.706223-146.632615 76.704986-147.172921 77.102029l-22.710234 16.180518L487.773226 733.008948c-0.538259-0.396019-58.030671-41.395806-147.174967-77.102029-86.911442-34.783201-136.637983-36.548404-137.442302-36.548404l-37.731346-0.615007 0-377.098567c0-189.301414 309.066101-389.134695 344.970846-389.491829 35.054377-0.346901 345.057827 200.192462 345.057827 389.489782L855.275227 618.743508zM469.628984 134.456686 308.506353 269.797118l49.535183 57.486272 103.363136-86.758969 196.174961 222.847437 57.93755-49.548486L469.628984 134.456686z"  horiz-adv-x="1024" />

    
    <glyph glyph-name="wenhao" unicode="&#59077;" d="M512.859 861.178c-263.307 0-476.576-213.265-476.576-476.576 0-263.307 213.269-476.576 476.576-476.576 263.311 0 476.576 213.269 476.576 476.576 0 263.311-213.266 476.576-476.576 476.576zM548.695 100.758h-78.835v86.002h78.835v-86.002zM663.36 480.594c-14.333-26.318-33.481-48.974-57.332-68.084-23.888-19.151-40.651-38.222-50.165-57.335-9.555-19.148-14.337-32.249-14.337-39.414v-25.085h-64.498v35.833c0 21.5 5.374 42.402 16.125 62.71 10.748 20.268 29.226 42.402 55.543 66.291 19.11 16.685 32.249 34.044 39.414 51.957 7.167 17.919 10.752 35.236 10.752 51.957 0 31.019-7.167 54.311-21.5 69.876-14.333 15.53-34.64 23.292-60.917 23.292-26.318 0-48.377-10.192-66.291-30.459-17.919-20.307-26.878-53.191-26.878-98.542h-82.417c2.352 66.851 20.268 116.461 53.751 148.708 33.443 32.252 74.017 48.377 121.834 48.377 52.517 0 93.725-14.333 123.623-42.999 29.862-28.666 44.795-65.735 44.795-111.087 0.002-31.054-7.168-59.721-21.501-85.998z"  horiz-adv-x="1024" />

    
    <glyph glyph-name="duihao" unicode="&#58888;" d="M512-116.57142857142856C235.12474095833335-116.57142857142856 10.666666666666686 107.8866457202381 10.666666666666686 384.76190476190476 10.666666666666686 661.6371638035714 235.12474095833335 886.0952380952381 512 886.0952380952381 788.8752590416666 886.0952380952381 1013.3333333333333 661.6371638035714 1013.3333333333333 384.76190476190476 1013.3333333333333 107.8866457202381 788.8752590416666-116.57142857142856 512-116.57142857142856ZM804.5558514166667 538.615534282738C786.25718475 556.8027933244048 756.5949628541667 556.8027933244048 738.2962961875 538.615534282738L473.2302218958333 274.91420094940474 340.6832590416667 406.7091638035714C322.384592375 424.9242752410714 292.72237047916667 424.9242752410714 274.42370381250004 406.7091638035714 256.1250371458333 388.52190476190475 256.1250371458333 359.0267933244047 274.42370381250004 340.81168286607146L440.0865180833333 176.06797905357132C458.38518475 157.85286761607142 488.047407625 157.85286761607142 506.37392570833333 176.06797905357132L804.5558514166667 472.7180533452381C822.8545180833332 490.90531238690477 822.8545180833332 520.4282752410713 804.5558514166667 538.615534282738Z"  horiz-adv-x="1024" />

    
    <glyph glyph-name="jifen" unicode="&#58908;" d="M131.968 822.848c-39.232-22.464-58.88-46.848-58.88-73.152l0-73.152c0-26.304 19.648-50.688 58.88-73.152 39.232-22.528 92.608-40.32 160-53.44C359.424 536.832 432.768 530.304 512 530.304c79.232 0 152.576 6.592 219.968 19.712 67.392 13.12 120.768 30.976 160 53.44 39.232 22.464 58.88 46.848 58.88 73.152L950.848 749.696c0 26.304-19.648 50.688-58.88 73.152-39.232 22.464-92.608 40.256-160 53.44C664.576 889.408 591.232 896 512 896 432.768 896 359.424 889.408 291.968 876.288 224.576 863.104 171.2 845.312 131.968 822.848M73.152 334.848l0-97.152c0-26.304 19.648-50.688 58.88-73.152 39.232-22.464 92.608-40.256 160-53.44 67.456-13.12 140.8-19.712 220.032-19.712 79.232 0 152.576 6.592 219.968 19.712 67.392 13.12 120.768 30.976 160 53.44 39.232 22.464 58.88 46.848 58.88 73.152L950.912 334.848c-45.312-32-107.264-56.192-185.728-72.576C686.656 245.888 602.304 237.696 512 237.696c-90.304 0-174.656 8.192-253.184 24.576C180.352 278.656 118.464 302.848 73.152 334.848M73.152 115.392l0-97.152c0-26.304 19.648-50.688 58.88-73.152 39.232-22.464 92.608-40.256 160-53.44C359.424-121.472 432.768-128 512-128c79.232 0 152.576 6.592 219.968 19.712 67.392 13.184 120.768 30.976 160 53.44 39.232 22.464 58.88 46.848 58.88 73.152l0 97.152c-45.312-32-107.264-56.192-185.728-72.576C686.656 26.496 602.304 18.304 512 18.304c-90.304 0-174.656 8.192-253.184 24.576C180.352 59.264 118.464 83.392 73.152 115.392M73.152 554.304l0-97.152c0-26.304 19.648-50.688 58.88-73.152 39.232-22.464 92.608-40.256 160-53.44C359.424 317.44 432.768 310.848 512 310.848c79.232 0 152.576 6.592 219.968 19.712 67.392 13.12 120.768 30.976 160 53.44 39.232 22.464 58.88 46.848 58.88 73.152L950.848 554.304c-45.312-32-107.264-56.192-185.728-72.576C686.656 465.344 602.304 457.152 512 457.152c-90.304 0-174.656 8.192-253.184 24.576C180.352 498.048 118.464 522.304 73.152 554.304"  horiz-adv-x="1024" />

    
    <glyph glyph-name="552cc594d8cc0" unicode="&#58903;" d="M512-62.016c-119.648 0-232.128 46.368-316.736 130.56C110.624 152.8 64 264.8 64 384c0 119.168 46.624 231.2 131.232 315.424 84.608 84.192 197.088 130.56 316.736 130.56s232.128-46.368 316.704-130.56c84.672-84.224 131.264-196.256 131.264-315.392 0.032-119.2-46.592-231.232-131.264-315.456C744.128-15.616 631.648-62.016 512-62.016zM512 766.016c-102.624 0-199.072-39.744-271.584-111.936C167.936 581.952 128 486.016 128 384c0-102.016 39.904-197.952 112.384-270.048 72.512-72.192 168.96-111.936 271.584-111.936 102.592 0 199.072 39.744 271.584 111.936 72.48 72.16 112.416 168.064 112.384 270.08 0 102.016-39.904 197.92-112.384 270.016C711.072 726.24 614.592 766.016 512 766.016zM736 416l-192 0L544 608c0 17.664-14.336 32-32 32s-32-14.336-32-32l0-192L288 416c-17.664 0-32-14.336-32-32s14.336-32 32-32l192 0 0-192c0-17.696 14.336-32 32-32s32 14.304 32 32l0 192 192 0c17.696 0 32 14.336 32 32S753.696 416 736 416z"  horiz-adv-x="1024" />

    
    <glyph glyph-name="gantanhao" unicode="&#58976;" d="M512-96c-265.095 0-480 214.905-480 480s214.905 480 480 480c265.095 0 480-214.905 480-480 0-265.095-214.905-480-480-480zM557 639c0 24.855-20.145 45-45 45s-45-20.145-45-45v-330c0-24.855 20.145-45 45-45s45 20.145 45 45v330zM512 174c-24.855 0-45-20.145-45-45s20.145-45 45-45c24.855 0 45 20.145 45 45 0 24.855-20.145 45-45 45z"  horiz-adv-x="1024" />

    
    <glyph glyph-name="iconfonthuodonggonggao" unicode="&#59226;" d="M567.443 813.845c-11.553 5.682-25.262 4.13-35.334-4.031-0.472-0.396-49.447-40.14-103.508-80.776-94.043-70.733-121.427-82.527-126.985-84.41h-133.25c-0.674 0-1.314-0.099-1.987-0.099h-60.158c-15.157 0-27.452-12.554-27.452-28.049v-447.654c0-15.494 12.294-28.049 27.452-28.049h217.188c5.457-2.015 31.325-14.239 114.758-83.716 48.537-40.404 92.123-79.884 92.561-80.28 6.231-5.649 14.181-8.623 22.197-8.623 4.615 0 9.297 0.991 13.675 3.006 11.991 5.517 19.705 17.675 19.705 31.121v780.834c0.034 13.116-7.309 25.042-18.863 30.725v0 0zM531.773 56.665c-14.787 12.752-31.292 26.793-48.2 40.735-111.424 92.141-138.976 99.871-157.67 99.871-0.371 0-0.707-0.099-1.078-0.099-0.371 0-0.707 0.099-1.078 0.099h-166.731c-19.233 0-23.679 5.55-23.679 25.273v343.554c0 13.38 1.549 21.772 17.347 21.772h151.776c18.189 0 46.146 7.632 168.011 98.781 21.726 16.254 42.946 32.575 61.303 46.913v-676.899zM860.048 392.885c0 86.954-46.179 162.807-114.826 203.608-3.099 1.685-10.475 4.923-15.595 4.923-15.225 0-27.586-12.62-27.586-28.181 0-10.44 5.457-19.756 13.709-24.613v0c53.051-30.791 88.89-88.969 88.89-155.737 0-67.958-37.051-127.028-91.685-157.389v0c-7.949-4.956-13.204-13.942-13.204-24.15 0-15.561 12.362-28.181 27.586-28.181 6.467-0.066 14.147 3.832 14.147 3.832 70.734 40.272 118.564 117.348 118.564 205.888v0 0zM828.217 739.775c-5.12 3.139-10.24 5.682-16.437 5.682-15.157 0-27.452-12.554-27.452-28.049 0-11.167 6.501-20.12 15.663-25.24 100.813-60.062 168.617-171.562 168.617-299.35 0-127.689-67.703-239.123-168.415-299.218-8.825-4.89-16.437-14.173-16.437-25.637 0-15.494 12.294-28.049 27.452-28.049 6.097 0 10.947 2.379 16.235 5.517 116.981 69.708 195.665 199.115 195.665 347.386 0 148.007-78.347 277.149-194.89 346.957v0 0z"  horiz-adv-x="1103" />

    
    <glyph glyph-name="icon03-copy" unicode="&#58906;" d="M5.142 752.627h1013.713v-737.257c-337.845 0-675.87 0-1013.713 0v737.257zM87.345 703.419c126.435-124.041 251.215-250.126 378.757-373.060 24.145-28.367 68.388-28.187 92.346 0.378 127.54 122.935 252.14 248.642 378.575 372.683-283.287 0-566.389 0-849.677 0zM53.983 671.534c-0.181-191.873 0-383.545 0-575.414 97.132 95.826 194.266 191.673 291.218 287.698-96.954 96.045-194.085 191.87-291.218 287.715zM678.985 383.817c96.945-95.828 193.898-191.692 291.028-287.521 0.181 191.693 0 383.365 0 575.047-97.13-95.657-194.084-191.682-291.028-287.526zM86.428 63.303c283.838 0 567.677 0 851.514 0-97.134 96.028-194.444 192.052-291.579 287.899-39.078-34.092-72.807-81.285-125.519-94.372-62.116-1.673-99.716 58.805-143.021 94.372-97.132-95.846-194.266-191.873-291.397-287.899z"  horiz-adv-x="1024" />

    
    <glyph glyph-name="qiandao" unicode="&#59086;" d="M386.492354 656 576.296371 656 576.296371 688 386.492354 688 386.492354 656 386.492354 656ZM721.152923 656 800.137835 656C835.348174 656 864 627.247862 864 591.953003 864 579.904366 864 579.904366 864 537.734854L864 506.280621 864 447.375109 896 447.375109 896 506.280621 896 537.734854C896 579.904366 896 579.904366 896 591.953003 896 644.895987 853.04637 688 800.137835 688L721.152923 688 721.152923 656 721.152923 656ZM864 207.611706 864 116.876814C864 86.932733 864 86.932733 864 79.940163 864 44.671414 835.27943 16 799.99949 16L160.00051 16C124.674889 16 96 44.707718 96 80.058498L96 591.941502C96 627.366965 124.574836 656 159.974914 656L240.076538 656 240.076538 688 159.974914 688C106.887132 688 64 645.025518 64 591.941502L64 80.058498C64 27.042798 106.993575-16 160.00051-16L799.99949-16C852.940283-16 896 26.986019 896 79.940163 896 86.932733 896 86.932733 896 116.876814L896 207.611706 864 207.611706ZM304 752 304 576C304 567.163445 311.163445 560 320 560 328.836555 560 336 567.163445 336 576L336 752C336 760.836556 328.836555 768 320 768 311.163445 768 304 760.836556 304 752ZM624 752 624 576C624 567.163445 631.163445 560 640 560 648.836555 560 656 567.163445 656 576L656 752C656 760.836556 648.836555 768 640 768 631.163445 768 624 760.836556 624 752ZM628.805562 294.131997 707.805562 199.760902C713.530224 192.922387 723.740984 192.084331 730.504077 197.897904L953.949389 389.972123C960.650451 395.732374 961.413128 405.834266 955.652877 412.535326 949.892626 419.236389 939.790734 419.999066 933.089674 414.238814L709.644362 222.164595 732.342877 220.301598 653.342877 314.672691C647.67072 321.448483 637.579664 322.343158 630.80387 316.671002 624.028078 310.998845 623.133405 300.907789 628.805562 294.131997ZM320 336C337.673112 336 352 350.326888 352 368 352 385.673112 337.673112 400 320 400 302.326888 400 288 385.673112 288 368 288 350.326888 302.326888 336 320 336ZM320 192C337.673112 192 352 206.326888 352 224 352 241.673112 337.673112 256 320 256 302.326888 256 288 241.673112 288 224 288 206.326888 302.326888 192 320 192ZM512 336C529.673112 336 544 350.326888 544 368 544 385.673112 529.673112 400 512 400 494.326888 400 480 385.673112 480 368 480 350.326888 494.326888 336 512 336ZM512 192C529.673112 192 544 206.326888 544 224 544 241.673112 529.673112 256 512 256 494.326888 256 480 241.673112 480 224 480 206.326888 494.326888 192 512 192Z"  horiz-adv-x="1024" />

    
    <glyph glyph-name="mobile" unicode="&#58882;" d="M755.231506 895.779048l-486.455013 0c-77.567259 0-140.681638-60.963843-140.681638-135.85168l0-752.091683c0-74.888837 63.113379-135.834684 140.681638-135.834684l486.455013 0c77.576257 0 140.67264 60.946846 140.67264 135.834684L895.904146 759.927367C895.904146 834.815205 832.807763 895.779048 755.231506 895.779048zM512.016996-64.45071499999995c-35.2134 0-63.84722 28.608826-63.84722 63.813228 0 35.178408 28.63482 63.80523 63.84722 63.80523 35.187406 0 63.822226-28.625822 63.822226-63.80523C575.839222-35.841890000000035 547.204402-64.45071499999995 512.016996-64.45071499999995zM831.928953 127.93676400000004L192.088043 127.93676400000004 192.088043 703.810478l639.840909 0L831.928953 127.93676400000004z"  horiz-adv-x="1024" />

    
    <glyph glyph-name="101" unicode="&#58890;" d="M1010.24 648.704c-16.704 16.448-43.52 16.384-60.096-0.256l-435.264-439.232-441.28 437.376c-16.704 16.512-43.52 16.384-60.096-0.256-16.576-16.704-16.384-43.584 0.256-60.096l469.056-464.832c0.704-0.704 1.664-0.896 2.368-1.6 0.192-0.192 0.192-0.384 0.384-0.576 8.256-8.192 19.136-12.352 29.888-12.352 10.944 0 21.888 4.224 30.144 12.608l464.832 469.056c16.64 16.768 16.512 43.648-0.192 60.16v0z"  horiz-adv-x="1024" />

    
    <glyph glyph-name="jinzhi" unicode="&#58893;" d="M1227.8242555432867 888.1131467189523c-277.88283270655364 277.88283270655364-728.5813360128825 277.88283270655364-1006.4641687194362 0-277.88283270655364-277.88283270655364-277.88283270655364-728.5813360128825 0-1006.4641687194362 277.88283270655364-277.88283270655364 728.5813360128825-277.88283270655364 1006.4641687194362 0 277.88283270655364 277.88283270655364 277.88283270655364 728.3173807849878 0 1006.4641687194362v0zM368.7697061441776 295.82646288892624v177.84380133442698h711.643487700486v-177.84380133442698h-711.643487700486zM368.7697061441776 295.82646288892624z"  horiz-adv-x="1449" />

    
    <glyph glyph-name="arrow-bottom" unicode="&#59062;" d="M512 230.39999999999998L225.28 518.20544l19.31264 19.39456L512 269.2096 779.40736 537.6 798.72 518.20544 512 230.39999999999998z"  horiz-adv-x="1024" />

    
    <glyph glyph-name="envelope" unicode="&#59112;" d="M1024.064 480.661c0 2.005-2.005 5.995-2.005 8 0 0 0 2.005-2.005 2.005 0 0 0 0 0 2.005 0 0-2.005 2.005-4.011 4.011 0 0 0 0-2.005 0l-490.005 341.995c-8 5.995-16 5.995-24 0l-490.005-340.011c0 0 0 0 0 0v-2.005c-2.005 0-2.005 0-2.005 0-2.005-2.005-4.011-2.005-4.011-4.011s0-2.005 0-2.005c-2.005 0-2.005-2.005-2.005-2.005 0-2.005-2.005-5.995-2.005-8 0 0 0 0 0 0v-469.995c0-48 37.995-85.995 85.995-85.995h852.011c48 0 85.995 37.995 85.995 85.995v469.995c0 0 0 0 0 0zM938.069-31.339h-852.011c-24 0-44.011 18.005-44.011 42.005v429.995l224-149.995c4.011-2.005 8-2.005 12.011-2.005 5.995 0 12.011 2.005 18.005 8 5.995 10.005 4.011 24-5.995 29.995l-229.995 154.005 452.011 314.005 452.011-314.005-229.995-154.005c-8-5.995-12.011-20.011-5.995-29.995 5.995-5.995 12.011-8 18.005-8 4.011 0 8 0 12.011 2.005l224 149.995v-429.995c0-24-20.011-42.005-44.011-42.005zM674.069 262.656c-4.011 2.005-8 4.011-12.011 4.011h-300.011c-4.011 0-8-2.005-12.011-4.011l-212.011-149.995c-10.005-5.995-12.011-20.011-5.995-28.011 5.995-10.005 20.011-12.011 29.995-5.995l208 146.005h284.011l208-146.005c4.011-2.005 8-4.011 12.011-4.011 8 0 13.995 4.011 18.005 10.005 5.995 8 4.011 21.995-5.995 28.011z"  horiz-adv-x="1025" />

    
    <glyph glyph-name="rili" unicode="&#58933;" d="M217.30432 205.73952l-25.56544 0c-21.1776 0-38.34752-17.16992-38.34752-38.34752l0-25.56544c0-21.1776 17.16992-38.34752 38.34752-38.34752l25.56544 0c21.17888 0 38.34752 17.16992 38.34752 38.34752l0 25.56544C255.65184 188.5696 238.48192 205.73952 217.30432 205.73952zM217.30432 435.82592l-25.56544 0c-21.1776 0-38.34752-17.16992-38.34752-38.34752l0-25.56544c0-21.1776 17.16992-38.34752 38.34752-38.34752l25.56544 0c21.17888 0 38.34752 17.16992 38.34752 38.34752L255.65184 397.4784C255.65184 418.65728 238.48192 435.82592 217.30432 435.82592zM971.47776 819.30496 818.0864 819.30496l0-63.91296c0-21.1776-17.16992-38.34752-38.34752-38.34752l-25.56544 0c-21.1776 0-38.34752 17.16992-38.34752 38.34752L715.82592 819.30496 306.78272 819.30496l0-63.91296c0-21.1776-17.16992-38.34752-38.34752-38.34752l-25.56544 0c-21.1776 0-38.34752 17.16992-38.34752 38.34752L204.52224 819.30496 51.13088 819.30496C22.89152 819.30496 0 796.41344 0 768.17408l0-843.65184c0-28.23936 22.89152-51.13088 51.13088-51.13088l460.17408 0 163.5968 0 2.66496 0c220.62976 0 339.21536 147.83616 344.81408 306.4448 0.07424 0.11392 0.15488 0.22272 0.22912 0.33664l0 11.45088L1022.60992 256.8704 1022.60992 768.17408C1022.60864 796.41344 999.71712 819.30496 971.47776 819.30496zM733.80736-68.74112C759.45216-30.25024 782.12992 29.93024 774.4 119.04c0 0 105.4528-22.32064 184.67456 10.45376C930.70976 25.41568 854.07872-47.10656 733.80736-68.74112zM971.47776 227.4304c0-9.7408-0.34304-19.3024-0.98688-28.69504-43.05792-26.19264-119.872-45.79328-254.66624-18.56 0 0 34.85056-168.31872-56.01408-255.6032-1.74976-0.01792-3.488-0.04864-5.25184-0.04864L76.69504-75.47648c-14.11968 0-25.56544 11.44576-25.56544 25.56544L51.1296 563.65184c0 14.11968 11.44576 25.56544 25.56544 25.56544l869.21728 0c14.11968 0 25.56544-11.44576 25.56544-25.56544L971.47776 227.4304zM830.86976 435.82592l-25.56544 0c-21.1776 0-38.34752-17.16992-38.34752-38.34752l0-25.56544c0-21.1776 17.16992-38.34752 38.34752-38.34752l25.56544 0c21.1776 0 38.34752 17.16992 38.34752 38.34752L869.21728 397.4784C869.21728 418.65728 852.04736 435.82592 830.86976 435.82592zM421.82528 205.73952l-25.56544 0c-21.1776 0-38.34752-17.16992-38.34752-38.34752l0-25.56544c0-21.1776 17.16992-38.34752 38.34752-38.34752l25.56544 0c21.17888 0 38.34752 17.16992 38.34752 38.34752l0 25.56544C460.17408 188.5696 443.00416 205.73952 421.82528 205.73952zM626.34752 435.82592l-25.56544 0c-21.1776 0-38.34752-17.16992-38.34752-38.34752l0-25.56544c0-21.1776 17.16992-38.34752 38.34752-38.34752l25.56544 0c21.1776 0 38.34752 17.16992 38.34752 38.34752L664.69504 397.4784C664.69504 418.65728 647.5264 435.82592 626.34752 435.82592zM421.82528 435.82592l-25.56544 0c-21.1776 0-38.34752-17.16992-38.34752-38.34752l0-25.56544c0-21.1776 17.16992-38.34752 38.34752-38.34752l25.56544 0c21.17888 0 38.34752 17.16992 38.34752 38.34752L460.1728 397.4784C460.17408 418.65728 443.00416 435.82592 421.82528 435.82592zM754.17344 742.60864l25.56544 0c7.0592 0 12.78208 5.7216 12.78208 12.78208L792.52096 883.21792c0 7.05792-5.72416 12.78208-12.78208 12.78208l-25.56544 0c-7.0592 0-12.78208-5.72416-12.78208-12.78208l0-127.82592C741.39136 748.33024 747.11552 742.60864 754.17344 742.60864zM242.86976 742.60864l25.56544 0c7.05792 0 12.78208 5.7216 12.78208 12.78208L281.21728 883.21792c0 7.05792-5.72416 12.78208-12.78208 12.78208l-25.56544 0c-7.05792 0-12.78208-5.72416-12.78208-12.78208l0-127.82592C230.0864 748.33024 235.81056 742.60864 242.86976 742.60864z"  horiz-adv-x="1024" />

    
    <glyph glyph-name="xz" unicode="&#59019;" d="M849.5 834L174.5 834C112.625 834 62 783.375 62 721.5l0-675c0-61.875 50.625-112.5 112.5-112.5l675 0c61.875 0 112.5 50.625 112.5 112.5L962 721.5C962 783.375 911.375 834 849.5 834zM770.75 468.375l-281.25-281.25c-22.5-22.5-56.25-22.5-78.75 0L253.25 344.625C230.75 367.125 230.75 400.875 253.25 423.375c22.5 22.5 56.25 22.5 78.75 0l118.125-118.125 241.875 241.875c22.5 22.5 56.25 22.5 78.75 0C793.25 524.625 793.25 485.25 770.75 468.375z"  horiz-adv-x="1024" />

    
    <glyph glyph-name="arrow-top" unicode="&#58883;" d="M512 537.601l286.72-287.805-19.313-19.395-267.407 268.39-267.407-268.39-19.313 19.395 286.72 287.805z"  horiz-adv-x="1024" />

    
    <glyph glyph-name="36x36guanbi" unicode="&#58905;" d="M1018.426 586.404l5.793 8.548h-70.222c-103.053-136.613-265.373-217.345-439.819-217.345-174.573 0-337.019 80.733-440.010 217.345h-70.19l5.793-8.548c28.588-42.235 62.147-80.099 99.571-113.12l-92.005-114.862 42.425-32.325 91.211 113.849c39.227-28.873 81.809-52.872 126.892-71.584l-50.909-136.455 50.592-17.951 50.688 135.821c52.429-16.527 107.549-25.898 163.998-27.861v-141.393h53.854v141.71c58.919 3.040 116.224 14.469 170.52 33.338l50.086-132.148 51.986 18.172-50.814 134.112c41.379 18.712 80.384 42.14 116.54 69.589l91.496-114.23 42.456 32.356-92.89 115.939c34.731 31.534 66.075 67.31 92.954 107.042z"  horiz-adv-x="1024" />

    
    <glyph glyph-name="usercg" unicode="&#58912;" d="M512 896c-282.779648 0-512-229.220352-512-512s229.220352-512 512-512 512 229.220352 512 512S794.779648 896 512 896zM506.033883 662.261175c79.159296 0 143.315529-62.286117 143.315529-139.108352S585.170944 384.022235 506.033883 384.022235s-143.315529 62.308352-143.315529 139.130587C362.696119 599.975058 426.874587 662.261175 506.033883 662.261175zM756.869413 146.34305800000004c0-39.112119-82.899529-40.604233-185.143881-40.604233L452.274469 105.73882500000002c-102.244352 0-185.143881 0.044471-185.143881 40.604233l0 11.575296c0 99.239058 82.899529 179.711415 185.143881 179.711415l119.452233 0c102.244352 0 185.143881-80.451291 185.143881-179.711415L756.870583 146.34305800000004z"  horiz-adv-x="1024" />

    
    <glyph glyph-name="yincang" unicode="&#58979;" d="M550.154 748.306c-292.513 0-546.872-239.097-546.872-356.103s254.359-356.103 546.872-356.103 546.872 239.097 546.872 356.103-254.359 356.103-546.872 356.103zM550.154 84.429c-287.426 0-498.544 236.554-498.544 307.774s211.118 307.774 498.544 307.774 498.544-236.554 498.544-307.774-213.662-307.774-498.544-307.774zM550.154 628.758c-132.267 0-236.554-106.831-236.554-236.554 0-132.267 106.831-236.554 236.554-236.554 132.267 0 236.554 106.831 236.554 236.554 0 132.267-106.831 236.554-236.554 236.554zM550.154 201.435c-104.287 0-190.769 83.938-190.769 190.769 0 104.287 83.938 190.769 190.769 190.769s190.769-83.938 190.769-190.769c0-104.287-86.482-190.769-190.769-190.769z"  horiz-adv-x="1101" />

    
    <glyph glyph-name="rmb" unicode="&#58881;" d="M872.448 865.28h-710.656c-67.584 0-122.88-55.296-122.88-122.88v-710.656c0-67.584 55.296-122.88 122.88-122.88h710.656c67.584 0 122.88 55.296 122.88 122.88v710.656c0 67.584-55.296 122.88-122.88 122.88zM774.144 689.152l-206.848-206.848 1.024-1.024h137.216c21.504 0 38.912-17.408 38.912-38.912 0-11.264-4.096-20.48-11.264-27.648-6.144-7.168-16.384-12.288-26.624-12.288h-153.6c0 0 0 0 0 0s0 0 0 0h-1.024v-72.704h154.624c21.504 0 38.912-17.408 38.912-38.912 0-11.264-4.096-20.48-11.264-27.648s-17.408-11.264-27.648-11.264h-154.624v-194.56c0-21.504-17.408-38.912-38.912-38.912s-38.912 17.408-38.912 38.912v194.56h-154.624c-21.504 0-38.912 17.408-38.912 38.912s17.408 38.912 38.912 38.912h154.624v72.704l-3.072-0c0 0 0 0 0 0h-153.6c-21.504 0-38.912 17.408-38.912 38.912 0 21.504 17.408 38.912 38.912 38.912h137.216l1.024 1.024-205.824 207.872c-15.36 15.36-15.36 39.936 0 55.296s39.936 15.36 55.296 0l206.848-205.824 205.824 205.824c15.36 15.36 39.936 15.36 55.296 0 7.168-7.168 11.264-17.408 11.264-27.648 1.024-10.24-3.072-20.48-10.24-27.648z"  horiz-adv-x="1024" />

    
    <glyph glyph-name="xinxi" unicode="&#58924;" d="M975.469 606.812c-25.648 51.338-62.289 97.339-108.878 136.769-94.879 80.268-220.742 124.473-354.38 124.473s-259.502-44.206-354.383-124.474c-46.59-39.429-83.229-85.431-108.887-136.769-26.765-53.532-40.336-110.448-40.336-169.162 0-83.766 28.138-164.962 81.364-234.78 48.292-63.347 114.93-114.542 193.42-148.761 3.103-25.385-4.785-51.149-23.569-76.797-11.009-14.963-12.597-34.503-4.161-51.035 8.416-16.455 25.138-26.708 43.658-26.708 0.851 0 1.702 0.037 2.572 0.074 119.735 6.074 211.91 82.17 239.999 108.047 125.712 5.978 242.876 51.45 331.022 128.785 92.157 80.845 142.907 187.803 142.907 301.173 0 58.715-13.563 115.631-40.348 169.163zM528.838 65.082l-11.878-0.321-8.228-8.531c-0.851-0.869-81.886-83.418-191.405-97.188 18.537 30.737 33.215 73.581 19.54 123.405l-3.803 13.837-13.354 5.362c-153.68 61.767-252.977 193.667-252.977 336.005 0 205.431 199.841 372.56 445.478 372.56s445.477-167.127 445.477-372.56c0-202.113-188.362-365.76-428.852-372.569zM763.465 530.763h-423.764c-16.059 0-29.072-12.948-29.072-28.923s13.012-28.923 29.072-28.923h423.764c16.039 0 29.054 12.948 29.054 28.923s-13.012 28.923-29.054 28.923zM594.209 385.122h-254.509c-16.059 0-29.072-12.938-29.072-28.923 0-15.965 13.012-28.912 29.072-28.912h254.509c16.059 0 29.074 12.947 29.074 28.912 0 15.984-13.015 28.923-29.074 28.923z"  horiz-adv-x="1024" />

    
    <glyph glyph-name="guanbi" unicode="&#59159;" d="M992.49766996 813.17628646c13.62277062 13.62277062 13.62277062 35.88942233 0 49.54555637l-1.53664629 1.50720821c-13.62277062 13.65613404-35.88942233 13.65613404-49.51219392 0.03532513L536.89678412 459.74373033c-13.62277062-13.61982758-35.89236633-13.61982758-49.51219295 0L82.72362521 864.2653575c-13.61982758 13.61982758-35.88942233 13.61982758-49.50924992 0l-1.54057067-1.57491542c-13.61982758-13.62277062-13.61982758-35.88942233 0-49.51219296L436.2994445 408.69390975c13.61982758-13.61982758 13.61982758-35.89236633 0-49.50924992l-404.62465854-404.55695229c-13.61982758-13.61688358-13.61982758-35.88942233 0-49.50630591l1.54057066-1.57491542c13.61982758-13.62277062 35.88942233-13.62277062 49.50924992 0l404.65998463 404.55008392c13.61982758 13.62277062 35.89040367 13.62277062 49.51219295 0l404.55106526-404.55106525c13.62277062-13.62277062 35.88942233-13.62277062 49.51219295 0.03238208l1.5366463 1.50426421c13.62277062 13.65515271 13.5903895 35.92769146 0 49.54457504L587.97898679 359.18465983c-13.61688358 13.61688358-13.61688358 35.88942233 0 49.50924992l404.51868317 404.48237671z"  horiz-adv-x="1024" />

    
    <glyph glyph-name="gantanhao1" unicode="&#58880;" d="M477.866667 213.333333h68.266666v-68.266666h-68.266666v68.266666z m0 409.6h68.266666v-341.333333h-68.266666V622.933333z m34.133333-716.8c263.918933 0 477.866667 213.947733 477.866667 477.866667S775.918933 861.866667 512 861.866667 34.133333 647.918933 34.133333 384s213.947733-477.866667 477.866667-477.866667z m0-34.133333C229.239467-128 0 101.239467 0 384 0 666.760533 229.239467 896 512 896c282.760533 0 512-229.239467 512-512 0-282.760533-229.239467-512-512-512z"  horiz-adv-x="1024" />

    
    <glyph glyph-name="shuaxin" unicode="&#59562;" d="M853.333333 127.936A426.112 426.112 0 0 0 512-42.666667C276.352-42.666667 85.333333 148.352 85.333333 384S276.352 810.666667 512 810.666667s426.666667-191.018667 426.666667-426.666667a21.333333 21.333333 0 0 0-42.666667 0c0 212.074667-171.925333 384-384 384S128 596.074667 128 384s171.925333-384 384-384a383.573333 383.573333 0 0 1 319.36 170.666667h-84.757333A21.248 21.248 0 0 0 725.333333 192c0 11.776 9.664 21.333333 21.269334 21.333333h128.128c5.866667 0 11.178667-2.346667 15.018666-6.186666l0.021334-0.106667c3.84-3.882667 6.229333-9.173333 6.229333-14.976v-128.128c0-11.733333-9.472-21.269333-21.333333-21.269333-11.776 0-21.333333 9.664-21.333334 21.269333v64z"  horiz-adv-x="1024" />

    
    <glyph glyph-name="un-xz" unicode="&#59152;" d="M822.7202322583704-60.53360192474088H201.2797677416296c-73.76811288651852 0-133.87546381274075 59.98316263348148-133.87546381274075 133.87546381274075V694.7823264047408c0 73.76811288651852 59.98316263348148 133.75127552 133.87546381274075 133.75127552h621.4404645167408c73.76811288651852 0 133.87546381274075-59.98316263348148 133.87546381274075-133.75127552v-621.4404645167408c-0.12418829274074074-73.76811288651852-60.10735092622222-133.87546381274075-133.87546381274075-133.87546381274075M201.2797677416296 768.1778731994074c-40.485530282666666 0-73.39554679466667-32.910016512-73.39554679466667-73.39554679466667v-621.4404645167408c0-40.485530282666666 32.910016512-73.39554679466667 73.39554679466667-73.39554679466667h621.4404645167408c40.485530282666666 0 73.39554679466667 32.910016512 73.39554679466667 73.39554679466667V694.7823264047408c0 40.485530282666666-32.910016512 73.39554679466667-73.39554679466667 73.39554679466667H201.2797677416296m0 0z"  horiz-adv-x="1024" />

    
    <glyph glyph-name="point" unicode="&#58885;" d="M829.952 701.952c-80.896 81.408-192.512 131.584-316.416 131.584H512c-248.32 0-450.048-201.728-450.048-450.048S263.168-66.55999999999995 512-66.55999999999995s450.048 201.728 450.048 450.048v1.024 0.512c0 124.416-50.688 236.544-132.096 316.928z m-32.768-603.136c-72.192-73.216-172.544-118.272-283.648-118.272H512c-222.72 0-403.456 180.736-403.456 403.456S289.28 787.456 512 787.456s403.456-180.736 403.456-403.456V382.46400000000006c0-111.104-45.056-211.456-118.272-283.648zM512 384m-256 0a256 256 0 1 1 512 0 256 256 0 1 1-512 0Z"  horiz-adv-x="1024" />

    
    <glyph glyph-name="usermobile" unicode="&#58965;" d="M512.716 896C230.063 896 0.942 666.8679999999999 0.942 384.235c0-282.643 229.121-511.785 511.774-511.785 282.643 0 511.775 229.132 511.775 511.785C1024.491 666.8679999999999 795.36 896 512.716 896z m221.497-757.345c0-38.956-34.955-70.86-77.022-70.86H368.222c-42.047 0-77.002 31.894-77.002 70.86v491.15c0 38.762 34.955 70.84 77.002 70.84h288.969c42.057 0 77.022-32.078 77.022-70.84v-491.15zM512.921 145.41999999999996c-14.504 0-27.472-11.094-27.472-25.025 0-13.93 12.958-24.985 27.472-24.985 15.292 0 27.073 11.044 27.073 24.985-0.01 13.93-11.791 25.026-27.073 25.026zM348.068 624.227h329.307v-453.596H348.068V624.227zM471.263 649.376h82.917c3.829 0 6.9 2.866 6.9 6.376 0 3.532-3.071 6.377-6.9 6.377h-82.917c-3.808 0-6.91-2.856-6.91-6.377 0-3.51 3.102-6.376 6.91-6.376z"  horiz-adv-x="1025" />

    
    <glyph glyph-name="liebiao" unicode="&#59797;" d="M97.74775349096291 461.6722962962963c-42.97867021274074 0-77.6722962962963-34.69362608355555-77.6722962962963-77.6722962962963s34.69362608355555-77.6722962962963 77.6722962962963-77.6722962962963 77.6722962962963 34.69362608355555 77.6722962962963 77.6722962962963-34.69362608355555 77.6722962962963-77.6722962962963 77.6722962962963z m0 310.6891851851852c-42.97867021274074 0-77.6722962962963-34.69362608355555-77.6722962962963-77.6722962962963S54.769082064592624 617.016888888889 97.74775349096291 617.016888888889 175.4200497872592 651.7105149724445 175.4200497872592 694.6891851851851 140.72642370370374 772.3614814814814 97.74775349096291 772.3614814814814z m0-621.3783703703704c-42.97867021274074 0-77.6722962962963-35.211440583111106-77.6722962962963-77.6722962962963s35.211440583111106-77.6722962962963 77.6722962962963-77.6722962962963 77.6722962962963 35.211440583111106 77.6722962962963 77.6722962962963-34.69362608355555 77.6722962962963-77.6722962962963 77.6722962962963zM253.09234608355558 21.52928354607411h724.9414316942222v103.56306253748147H253.09234608355558v-103.56306253748147z m0 310.6891851851852h724.9414316942222v103.56306253748147H253.09234608355558v-103.56306253748147z m0 414.2522477226666v-103.56306253748147h724.9414316942222V746.4707164539259H253.09234608355558z"  horiz-adv-x="1024" />

    
    <glyph glyph-name="edit" unicode="&#58931;" d="M313.6 150.39999999999998c0-9.6 3.2-19.2 12.8-28.8 6.4-6.4 16-9.6 28.8-9.6 9.6 0 22.4 3.2 28.8 12.8l582.4 688c6.4 6.4 12.8 16 12.8 28.8s-3.2 19.2-12.8 28.8c-16 16-41.6 16-57.6 0l-582.4-688c-9.6-9.6-12.8-22.4-12.8-32zM937.6 396.8c-22.4 0-38.4-16-38.4-38.4v-364.8c0-16-12.8-28.8-32-28.8H160c-16 0-32 12.8-32 28.8v681.6c0 16 12.8 28.8 32 28.8h329.6c22.4 0 38.4 16 38.4 38.4s-19.2 38.4-38.4 38.4H160c-60.8 0-108.8-48-108.8-105.6v-681.6c0-57.6 48-105.6 108.8-105.6h707.2c60.8 0 108.8 48 108.8 105.6v364.8c0 22.4-19.2 38.4-38.4 38.4z"  horiz-adv-x="1024" />

    
    <glyph glyph-name="laba" unicode="&#58923;" d="M569.6-57.6c0-108.8-83.2-51.2-83.2-51.2L121.6 192H64c-32 0-64 32-64 64V512c0 38.4 25.6 64 64 64h64L480 876.8s83.2 57.6 83.2-51.2l6.4-883.2m192 275.2c102.4 83.2 96 249.6 0 320-38.4 25.6-64-51.2-64-51.2s96-121.6 0-217.6c-19.2-25.6 12.8-76.8 64-51.2m51.2 499.2c-12.8 12.8-83.2-32-44.8-76.8 211.2-179.2 211.2-345.6 0-524.8-32-32 12.8-89.6 44.8-76.8 288 140.8 275.2 556.8 0 678.4m0 0z"  horiz-adv-x="1024" />

    
    <glyph glyph-name="xiala" unicode="&#58884;" d="M182.737 713.263l334.581-329.263 323.945 326.478v-50.656l-323.945-326.478-334.581 329.263zM182.737 434.656l334.581-329.263 323.945 326.478v-50.656l-323.945-326.478-334.581 329.263z"  horiz-adv-x="1024" />

    
    <glyph glyph-name="userbank" unicode="&#58970;" d="M705.021 300.904l-0.034-0.271-0.052-0.359c0.017 0.034-1.555-6.746-1.555-6.746l-0.071-0.359h0.857c1.301 0 2.552 0.034 3.614 0.564 1.249 0.599 2.189 1.885 2.552 3.373 0.36 1.643-0.14 2.912-1.421 3.424-0.052 0-3.27 0.309-3.27 0.309l-0.619 0.066h-0.001v-0.001zM612.414 233.84299999999996h37.563c0.345 0 0.719 0.017 1.081 0.049h37.014c-5.29 0-8.527 4.282-7.293 9.537l2.311 9.915h-0.377c-1.024 0-1.762 0.034-2.276 0.069-0.498 0.068-1.013 0-1.37 0.29-0.308 0.273-0.754 0.616-0.739 0.979 0 0.34 0.141 0.872 0.362 1.608l5.854 19.447h3.75l1.35 5.768c-0.699-0.016-1.419-0.032-2.501-0.084l-0.101 0.155c0.207 0.806 0.395 1.644 0.602 2.5l0.29 1.148c0.427 1.813 0.804 3.871 0.857 4.501 0.035 0.395 0.136 1.336-0.926 1.336-0.444 0-0.959-0.189-1.42-0.411-0.259-0.941-0.79-3.615-1.062-4.844-0.532-2.57-0.564-2.861-0.82-4.13l-0.155-0.17c-1.954 0.034-2.619 0.034-4.847-0.069l-0.118 0.192c0.36 1.522 0.718 3.08 1.079 4.585 0.959 4.145 1.148 5.719 1.422 7.825l0.17 0.136c2.208 0.291 2.708 0.359 5.103 0.857l0.189-0.259-0.359-1.299c0.374 0.239 0.788 0.464 1.163 0.686 1.148 0.532 2.38 0.719 3.048 0.719 0.463 0 0.976-0.068 1.406-0.256l5.559 23.95c1.15 4.726 5.514 8.683 10.188 9.419h1.729c-4.708-0.739-9.074-4.711-10.168-9.419l-5.96-25.51c0.293-1.01-0.017-2.291-0.547-4.654l-0.308-1.303c-0.653-2.876-0.72-3.408-1.047-5.376l-0.257-0.173h-0.549l-1.572-6.763a2.56 2.56 0 0 0 0.564 0.308c0.94 0.325 3.013 0.668 3.013 0.668l6.78 0.034-2.328-7.667c-0.359-1.32-0.808-2.161-1.097-2.555-0.222-0.392-0.549-0.737-1.131-1.06-0.563-0.273-1.113-0.48-1.574-0.532-0.445-0.034-1.128-0.052-2.087-0.052h-4.639l-1.729-7.295 1.372 0.14-0.995-3.341h-1.116l-2.312-9.895c-1.229-5.275 2.021-9.557 7.278-9.557h37.545c0.121 0 0.222 0.02 0.343 0.02 4.708 0.751 9.039 4.688 10.116 9.379l17.485 75.094c1.227 5.255-2.038 9.555-7.28 9.555h-32.562c-0.377 0.084-0.84 0.118-1.353 0.118h-43.162c-0.357 0-0.717-0.034-1.079-0.066h-35.456c-5.275 0-10.511-4.3-11.728-9.555l-17.498-75.094c-1.197-5.237 2.058-9.52 7.313-9.605l-0.001 0.007z m83.893 27.719c-0.173-0.584-0.325-1.029-0.754-1.39-0.464-0.394-0.996-0.788-2.245-0.788l-2.328-0.086-0.018-2.087c-0.031-0.599 0.121-0.532 0.225-0.633a0.778 0.778 0 0 1 0.306-0.19l0.756 0.035 2.228 0.118-0.924-3.028h-2.535c-1.779 0-3.134 0-3.545 0.359-0.412 0.239-0.48 0.6-0.461 1.181l0.17 8.15h4.058l-0.069-1.678h0.993c0.343 0 0.55 0.034 0.705 0.118 0.138 0.088 0.222 0.207 0.29 0.429l0.309 1.317h3.218l-0.375-1.83-0.004 0.003z m14.263-8.115h-4.371l0.308 0.995h-8.867l0.907 2.893h0.909l4.639 15.356 0.922 3.134h4.469l-0.463-1.576s1.215 0.84 2.326 1.131c0.909 0.241 5.479 0.359 7.039 0.394h4.74l0.036-1.781c-0.017-0.273 0.257-0.408 0.789-0.408h0.976l-0.892-2.928h-2.553c-2.223-0.189-3.063 0.789-3.014 1.851l-0.049 1.744-0.446-1.557h-1.545l-4.585-15.152h1.215l-0.995-3.1h-1.197l-0.306-0.992 0.008-0.004z m19.722 13.475h-4.76l-0.754-2.363h4.774l-0.788-2.602h-5.187l-0.924-1.079h2.087l0.515-3.27c0.052-0.327 0.067-0.534 0.17-0.688 0.069-0.136 0.72-0.187 1.097-0.187h0.602l-0.979-3.151h-1.608c-0.257 0-0.613 0.017-1.129 0.034-0.461 0.034-0.788 0.308-1.131 0.463-0.322 0.136-0.736 0.498-0.857 1.114l-0.476 3.252-2.365-3.218c-0.754-1.013-1.744-1.799-3.459-1.799h-3.286l0.872 2.844h1.251c0.375 0 0.686 0.17 0.925 0.273 0.273 0.101 0.46 0.222 0.704 0.581l3.405 4.812h-4.519l0.769 2.585h5.169l0.756 2.362h-5.119l0.941 2.962h14.193l-0.889-2.925z m0.82 19.961c-0.104 1.113-0.273 2.262-0.431 3.341-0.239 2.274-0.188 1.949-0.476 3.391l-0.018 0.031c0.018 0.087 0.018 0.173 0.032 0.259l0.189 0.153c2.26 0.293 2.297 0.377 4.758 0.84l0.207-0.222 0.322-6.266c0.021-0.138 0.021-0.222 0.021-0.359 1.303 2.893 1.249 2.087 2.857 5.787v-0.034c0.02 0.034 0.02 0.084 0.052 0.104l0.153 0.152c2.143 0.293 2.535 0.377 4.9 0.841l0.189-0.223-12.619-22.119c-0.584-1.047-1.626-1.851-3.373-1.851l-2.927 0.035 0.889 2.823h0.55c0.308 0 0.498 0.02 0.668 0.104 0.118 0.034 0.256 0.155 0.374 0.325l0.959 1.678c1.453 2.207 1.815 3.166 3.341 5.664-0.257 2.809-0.397 3.732-0.617 5.546z m-10.168 7.638a3.387 3.387 0 0 0 1.658-1.37c0.035 0.173 0.052 0.343 0.084 0.532l0.173 0.139c2.278 0.34 2.877 0.426 5.255 0.854l0.086-0.204c-0.429-1.782-0.874-3.58-1.267-5.359-0.874-3.718-1.182-5.635-1.522-7.583l-0.207-0.155c-2.296 0.018-2.943 0.018-5.05-0.069l-0.173 0.173c0.101 0.256 0.173 0.513 0.241 0.788-0.754-0.65-1.611-1.096-2.501-1.147a5.877 5.877 0 0 0-2.602 0.478c-2.944 1.131-2.451 4.314-2.055 6.078 0.392 1.729 1.079 3.545 2.481 4.881 2.025 1.848 4.37 2.346 5.397 1.969v-0.005h0.002z m-5.307 7.634c0.547-0.738 0.734-1.66 0.734-2.602 0-0.722-0.101-1.441-0.254-2.055-0.566-2.449-1.867-4.472-3.681-5.856-2.725-2.003-6.199-2.003-9.281-2.003h-0.342c-0.207-0.104-0.43-0.411-0.43-0.411-0.034-0.136-0.738-3.082-0.738-3.082-0.018 0-0.838-4.006-1.008-4.674-0.582 0.052-2.069 0.052-5.633 0.017 0.19 0.686 3.682 15.101 3.682 15.101l1.453 6.78s0.121 0.532 0.189 0.841c0.668-0.069 2.294-0.121 6.389-0.052 0 0 1.558 0.017 1.572-0.018 3.2-0.015 5.957-0.034 7.345-1.986h0.003z m-51.707-12.858c-0.236-0.906-0.429-1.796-0.633-2.685-0.411-1.92-0.581-2.619-0.688-3.117-0.101-0.497-0.136-0.754-0.308-1.744l-0.118-0.086-0.104-0.087c-1.111 0-1.849 0.018-2.567 0-0.702-0.017-1.419-0.049-2.483-0.083l-0.069 0.083-0.049 0.087c0.241 1.096 0.426 1.49 0.581 1.867 0.138 0.374 0.241 0.769 0.515 1.865 0.309 1.437 0.532 2.449 0.666 3.338 0.157 0.857 0.243 1.592 0.361 2.43l0.087 0.069 0.101 0.083c1.113 0.155 1.851 0.259 2.569 0.362a50.111 50.111 0 0 1 2.654 0.48l0.101-0.052 0.034-0.12c-0.238-0.893-0.426-1.765-0.65-2.688v-0.002z m0.188 3.834c-1.249-0.857-3.116-1.047-4.179-0.446-1.062 0.636-0.906 1.833 0.362 2.688 1.228 0.854 3.114 1.079 4.174 0.446 1.047-0.616 0.892-1.816-0.357-2.688z m16.403-26.995h-4.776l-0.754-2.435h4.896l-0.907-2.941h-4.896l-1.163-3.954c-0.14-0.429 1.178-0.498 1.642-0.498l2.451 0.34-0.979-3.255h-5.511c-0.446 0-0.771 0.087-1.25 0.192-0.479 0.102-0.67 0.291-0.892 0.631-0.207 0.311-0.532 0.584-0.308 1.269l1.592 5.275h-2.708l0.892 2.996h2.74l0.717 2.429h-2.705l0.857 2.809h11.949l-0.89-2.857h0.003v-0.001z m1.983 8.026l-0.904-3.013h-6.73l-0.715-0.616c-0.308-0.291-0.448-0.152-0.843-0.374-0.392-0.19-1.162-0.564-2.207-0.564h-2.141l0.857 2.858h0.65c0.547 0 0.906 0.054 1.079 0.172 0.238 0.155 0.463 0.463 0.754 0.959l1.214 2.225h4.879l-0.804-1.644h4.91v-0.003h0.001z m-8.489 20.647c1.796 0 3.527-0.392 4.523-1.658 0.647-0.82 1.147-2.175 0.495-5.085-0.207-0.875-0.789-3.013-2.07-4.433-1.66-1.781-3.873-2.362-6.043-2.362-0.857 0-2.142 0.118-3.085 0.48-2.941 1.18-2.427 4.381-2.053 6.162 0.412 1.744 1.08 3.579 2.553 4.93 2.018 1.865 4.603 1.969 5.682 1.969l-0.002-0.003z m-29.415-0.614c2.192 0.288 2.723 0.357 5.087 0.857l0.205-0.259-0.359-1.301c0.377 0.239 0.788 0.461 1.18 0.683 0.273 0.12 0.513 0.241 0.788 0.325l5.612 24.091c1.134 4.725 5.497 8.68 10.19 9.416h2.072c-4.708-0.736-9.074-4.708-10.188-9.416l-5.512-23.714h0.138c0.996 0 2.158-0.309 2.604-1.506 0.461-1.079 0.17-2.396-0.411-4.999l-0.325-1.303c-0.634-2.875-0.702-3.407-1.063-5.374l-0.241-0.172c-1.608 0.017-2.326 0.032-3.851-0.035l-8.87-37.991c-1.214-5.275 2.004-9.557 7.296-9.557h-2.038c-5.272 0-8.524 4.281-7.293 9.557l11.061 47.546c-0.066 0.032-0.207 0.05-0.36 0.05-0.445 0-0.94-0.188-1.419-0.412-0.259-0.94-0.771-3.611-1.064-4.844-0.515-2.566-0.581-2.86-0.82-4.126l-0.17-0.173c-1.937 0.034-2.606 0.034-4.863-0.066l-0.101 0.17 1.128 4.59c0.941 4.139 1.131 5.716 1.419 7.82l0.173 0.14-0.005 0.003z m-22.408-4.262l0.257 1.063 2.791 12.346s0.152 0.683 0.17 0.803c0.066-0.101 1.01-0.155 6.354-0.101a0.521 0.521 0 0 1-0.051-0.155c-0.498-1.438-3.221-12.412-3.221-12.412l-0.513-3.27 0.052-0.55c0.17-1.626 1.148-2.48 2.876-2.48a4.244 4.244 0 0 1 2.757 0.976c1.367 1.131 1.813 2.841 2.362 5.307 0.018 0 2.602 12.019 2.774 12.686 0.359-0.101 1.471-0.135 5.342-0.101-0.018-0.034-0.035-0.066-0.035-0.152-0.48-1.474-3.307-12.876-3.307-12.876l-0.322-1.215c-0.668-2.362-1.441-5.067-4.366-6.782-1.646-1.045-4.126-1.592-6.78-1.592-2.069 0-5.684 0.325-6.986 2.553-0.395 0.704-0.6 1.505-0.6 2.532l0.446 3.425v-0.005zM683.791 256.495l1.729 7.413h-0.14l-1.831-6.061c-0.155-0.616-0.256-0.907-0.136-1.077 0.032-0.104 0.17-0.224 0.375-0.275h0.003zM718.837 284.04200000000003c0.516 0 1.439 0.357 1.797 0.907 0.222 0.273 0.411 0.719 0.583 1.165 0.118 0.599 0.291 1.215 0.446 1.848 0.102 0.463 0.204 0.855 0.291 1.232 0.086 1.49-0.395 2.345-1.355 2.345-1.503 0-2.084-1.83-2.567-3.974-0.187-0.769-0.322-1.49-0.29-2.158 0.017-1.367 0.945-1.367 1.099-1.367l-0.004 0.002zM703.976 257.505h3.543l1.027 3.391h-3.525l-1.045-3.391zM708.561 272.68899999999996l-1.146-3.868s1.315 0.584 2.035 0.788c0.736 0.188 1.816 0.256 1.799 0.256l0.838 2.824h-3.526zM705.617 262.866s1.355 0.685 2.072 0.904c0.717 0.173 1.816 0.311 1.816 0.311l0.872 2.789h-3.546l-1.214-4.004zM671.531 284.231c0.532 0 1.048 0.343 1.425 0.925 0.581 0.769 0.992 2.616 1.096 3.079 0.513 2.21 0.446 3.58-0.739 3.58-1.49 0-2.086-1.813-2.566-4.023-0.173-0.736-0.309-1.453-0.294-2.176 0.016-1.385 0.925-1.385 1.078-1.385zM325.232 337.22h18.319c5.274 0 9.556 4.263 9.556 9.503v27.786c0 5.258-4.283 9.485-9.556 9.485H325.25c-5.274 0-9.555-4.23-9.555-9.485h-0.018v-27.786c0-5.24 4.281-9.503 9.556-9.503h-0.001zM259.626 337.22h18.319c5.273 0 9.555 4.263 9.555 9.503v27.786c0 5.258-4.281 9.485-9.555 9.485h-18.302c-5.272 0-9.554-4.23-9.554-9.485h-0.018v-27.786c0-5.24 4.281-9.503 9.556-9.503h-0.001zM390.46 337.22h18.303c5.291 0 9.571 4.263 9.571 9.503v27.786c0 5.258-4.28 9.485-9.571 9.485H390.46c-5.273 0-9.551-4.23-9.551-9.485v-27.786c0-5.241 4.279-9.503 9.551-9.503zM687.9 266.631h4.196c0.699 0.086 0.87-0.018 0.921 0.018l0.412 1.369h-5.187l-0.343-1.39v0.003h0.001zM512 895.43C229.546 895.43 0.571 666.455 0.571 383.999 0.571 101.54399999999998 229.546-127.42999999999995 512-127.42999999999995c282.455 0 511.429 228.974 511.429 511.429C1023.429 666.455 794.456 895.43 512 895.43zM212.647 568.4159999999999c0 16.968 13.764 30.731 30.765 30.731h537.177c17.002 0 30.765-13.763 30.75-30.731v-81.512H212.645v81.512h0.002z m598.71-368.829c0-16.969-13.782-30.733-30.766-30.733H243.415c-16.967 0-30.766 13.768-30.766 30.733V430.749h598.71v-231.162h-0.002zM694.373 270.94500000000005l0.479 1.643h-5.583l-0.513-2.242a8.898 8.898 0 0 0 1.815 0.532c0.547 0.102 3.8 0.067 3.8 0.067h0.002z"  horiz-adv-x="1024" />

    
    <glyph glyph-name="dengpao" unicode="&#58907;" d="M274.4064 644.80256c11.9296 15.05792 25.07264 29.05088 39.44448 41.56928L242.64192 757.62688a28.63104 28.63104 0 0 1-40.54528 0 28.64128 28.64128 0 0 1 0-40.50944l72.30976-72.31488z m231.60832 114.54976h0.82944c9.40032 0 18.69824-0.5888 27.8272-1.53088V854.85056c0 15.82592-12.83584 28.65664-28.66176 28.65664s-28.61568-12.83072-28.61568-28.65664v-97.01376a275.46112 275.46112 0 0 0 27.8272 1.51552h0.7936z m231.66976-114.5088l72.23296 72.27392a28.59008 28.59008 0 0 1 0 40.50944c-11.14624 11.2128-29.32736 11.2128-40.54528 0l-71.25504-71.25504c14.4128-12.51328 27.56096-26.49088 39.56736-41.52832zM204.02176 441.63072c0 13.83424 1.10592 27.37664 2.71872 40.76032H104.8576a28.65664 28.65664 0 0 1 0-57.31328h99.51744a374.05184 374.05184 0 0 0-0.35328 16.55296z m703.12448 40.7552h-101.8368c1.65376-13.38368 2.7136-26.92608 2.7136-40.76032 0-5.62688-0.10752-11.10016-0.31232-16.55296h99.4304a28.6208 28.6208 0 0 1 28.62592 28.65152 28.6208 28.6208 0 0 1-28.6208 28.66176z m-154.38336-234.88c-11.65824-17.09056-23.97696-31.8464-35.82464-45.18912l52.43392-52.47488c11.21792-11.18208 29.39904-11.18208 40.54528 0a28.63104 28.63104 0 0 1 0 40.54528l-57.15456 57.11872zM202.09152 190.3872a28.68736 28.68736 0 0 1 0-40.54528 28.6976 28.6976 0 0 1 40.54528 0l52.47488 52.5056c-11.84768 13.312-24.17152 28.1088-35.82464 45.15328l-57.19552-57.1136z m566.17984 251.24352a261.30432 261.30432 0 0 1-53.10464 158.3872 263.56224 263.56224 0 0 1-114.99008 86.75328l0.23552 1.26464-19.64032 5.76512a267.35616 267.35616 0 0 1-47.0784 9.15456l-2.28352 0.25088h-0.0768l-0.08704 0.02048c-7.86944 0.74752-16.05632 1.32096-24.6016 1.32096h-1.25952c-8.54528 0-16.73216-0.57856-24.6016-1.32096l-0.11776-0.02048-2.36032-0.25088a266.46528 266.46528 0 0 1-47.02208-9.15456l-19.01568-5.54496 0.19968-1.26464a264.05888 264.05888 0 0 1-115.61984-86.97344 261.77024 261.77024 0 0 1-53.10464-158.38208c0-42.61376 7.36256-77.6448 18.82112-106.63424 17.19808-43.47904 43.45344-72.85248 64.55808-95.12448 10.55232-11.10016 19.84-20.58752 26.1376-28.69248 6.45632-8.15104 9.56416-14.44864 10.46528-19.44576 4.60288-24.33024 5.07904-55.04 5.07904-62.82752v-2.24256c0-35.18976 28.50304-63.61088 63.65696-63.65184H579.584c35.19488 0.03584 63.65184 28.50304 63.65184 63.65184v2.17088c-0.03584 7.71072 0.47616 38.49728 5.07904 62.85824 0.62976 3.38944 2.1248 7.24992 5.07904 11.96544 5.03808 8.22784 14.5664 18.46272 26.37312 30.79168 17.63328 18.53952 40.06912 41.92256 57.91232 75.1616 17.8688 33.19808 30.65856 76.0832 30.592 132.01408z m-60.11392-90.28608c-14.0544-35.44576-35.15392-59.43808-55.50592-80.93696-10.15296-10.74688-20.1216-20.74112-28.81536-31.80544-8.576-10.9056-16.256-23.38304-19.21024-38.69696-5.55008-29.88032-5.7856-61.9264-5.82144-71.0912v-2.17088a19.20512 19.20512 0 0 0-19.20512-19.20512H432.47104a19.11296 19.11296 0 0 0-13.62432 5.62688 18.9696 18.9696 0 0 0-5.58592 13.57824v2.24256c-0.03584 9.25184-0.31744 41.216-5.86752 71.0144-1.88928 10.112-6.02112 19.16928-11.01824 27.20256-8.8576 14.0544-20.19328 25.62048-31.89248 38.02624-17.66912 18.42688-36.37248 38.3232-50.93888 65.46432-14.52544 27.1616-25.30816 61.68064-25.35424 111.02208 0.04096 49.50016 16.37888 94.92992 44.09344 131.5584 27.71456 36.58752 66.688 64.22016 111.67744 77.68064l5.55008 1.6896c10.86464 2.79552 22.00576 5.0176 33.47968 6.2208h0.0768l2.12992 0.23552a219.22304 219.22304 0 0 0 19.72224 1.1008l1.14176-0.11776 1.14176 0.0768c6.41024 0 12.98432-0.43008 19.68128-1.06496h-0.08192l2.2016-0.23552h0.04096c11.44832-1.2032 22.59456-3.38432 33.41824-6.2208l5.632-1.6896c44.99456-13.46048 83.96288-41.09824 111.67744-77.68064a217.20576 217.20576 0 0 0 44.05248-131.5584c0.00512-37.58592-6.29248-66.60096-15.65696-90.28096l-0.01024 0.01536z m-174.50496 351.60064h0.08192-0.08192z m-55.35232 0h0.0768-0.0768z m100.69504-657.34144H433.0496a27.36128 27.36128 0 0 1 0-54.72768h145.9456a27.36128 27.36128 0 1 1 0 54.72768z m0-69.04832H433.0496a27.3664 27.3664 0 0 1-27.35616-27.32032 27.392 27.392 0 0 1 27.35616-27.40224h145.9456a27.392 27.392 0 0 1 27.36128 27.40224c0 15.0784-12.288 27.32032-27.36128 27.32032z m-60.19072-69.59616h-75.1616c0-0.82944-0.15872-1.6128-0.15872-2.47808 0-15.11424 23.22944-27.36128 44.6976-27.36128h35.66592c21.49376 0 44.68224 12.24704 44.68224 27.36128 0 0.86528-0.11776 1.64864-0.11776 2.47808h-49.60768z"  horiz-adv-x="1024" />

    
    <glyph glyph-name="dian" unicode="&#59033;" d="M512 384m-512 0a512 512 0 1 1 1024 0 512 512 0 1 1-1024 0ZM512 384m-219.428571 0a219.428571 219.428571 0 1 1 438.857142 0 219.428571 219.428571 0 1 1-438.857142 0Z"  horiz-adv-x="1024" />

    
    <glyph glyph-name="shangla-copy" unicode="&#59798;" d="M841.263 54.736999999999966l-334.581 329.263-323.945-326.478 1e-8 50.656 323.94499999 326.478 334.581-329.263zM841.263 333.34400000000005l-334.581 329.263-323.945-326.478 0 50.656 323.945 326.478 334.58099999-329.263z"  horiz-adv-x="1024" />

    


  </font>
</defs>
</svg>
